<?xml version="1.0" encoding="utf-8" ?>
<svg baseProfile="full" viewBox="0.00 0.00 2500.00 1250.00" style="overflow:visible;" version="1.1" xmlns="http://www.w3.org/2000/svg" xmlns:ev="http://www.w3.org/2001/xml-events" xmlns:xlink="http://www.w3.org/1999/xlink">
<defs>
<g id="XYU-275229-1-8c99a531-16b4-4751-b8f5-e68645aaceb6" class="part" part-code="Detal'_MS22.082_1.5mm_275229id_1.5mm-10sht" data-width="20.000" data-height="24.000">
<g vector-effect="non-scaling-stroke" fill="#4682B4" class="outer" stroke="orange" stroke-width="0.1"><path d="M3.3,20.0H0.0V0.0h20.0v20.0zM16.75,15.00A1.75,1.75 0 1,0 18.50,16.75A1.75,1.75 0 0,0 16.75,15.00zM15.00,3.25A1.75,1.75 0 0,0 18.50,3.25A1.75,1.75 0 0,0 15.00,3.25zM3.25,5.00A1.75,1.75 0 1,0 1.50,3.25A1.75,1.75 0 0,0 3.25,5.00zM3.27,18.50A1.75,1.75 0 1,0 1.50,16.75A1.75,1.75 0 0,0 3.27,18.50z"></path></g>
<g vector-effect="non-scaling-stroke" fill="None" class="contour" stroke="orange" stroke-width="0.1"><path d="M16.75,15.00A1.75,1.75 0 1,0 18.50,16.75A1.75,1.75 0 0,0 16.75,15.00"></path><path d="M15.00,3.25A1.75,1.75 0 0,0 18.50,3.25A1.75,1.75 0 0,0 15.00,3.25"></path><path d="M3.25,5.00A1.75,1.75 0 1,0 1.50,3.25A1.75,1.75 0 0,0 3.25,5.00"></path><path d="M3.27,18.50A1.75,1.75 0 1,0 1.50,16.75A1.75,1.75 0 0,0 3.27,18.50"></path><path d="M20.0,20.0V0.0H0.0v20.0h3.3"></path></g>
<g vector-effect="non-scaling-stroke" fill="none" class="incut" stroke="#CEC97D" stroke-width="0.1"><path data-pos="4" data-class="open" d="M3.3,24.0A2.0,2.0 0 0,1 3.3,20.0"></path><path data-pos="0" data-class="open" d="M16.75,16.75A0.88,0.88 0 0,0 16.75,15.00"></path><path data-pos="1" data-class="open" d="M16.75,3.25A0.88,0.88 0 0,0 15.00,3.25"></path><path data-pos="2" data-class="open" d="M3.25,3.25A0.88,0.88 0 0,0 3.25,5.00"></path><path data-pos="3" data-class="open" d="M3.25,16.75A0.87,0.87 0 1,0 3.27,18.50"></path></g>
<g fill="red" class="incut_start" stroke="none"><circle cx="3.33" cy="24.0" r="0.1" data-pos="4" data-class="open"/><circle cx="16.75" cy="16.75" r="0.1" data-pos="0" data-class="open"/><circle cx="16.75" cy="3.25" r="0.1" data-pos="1" data-class="open"/><circle cx="3.25" cy="3.25" r="0.1" data-pos="2" data-class="open"/><circle cx="3.25" cy="16.75" r="0.1" data-pos="3" data-class="open"/></g>
</g>
<g id="XYU-274482-2-f92b438b-ac50-46ac-bf5b-5e615a9fa51f" class="part" part-code="Napravlyayuschaya_274482id_1.5mm-630sht" data-width="401.000" data-height="16.353">
<g vector-effect="non-scaling-stroke" fill="#4682B4" class="outer" stroke="orange" stroke-width="0.1"><path d="M397.0,8.2v8.2H0.0V0.0h397.0z"></path></g>
<g vector-effect="non-scaling-stroke" fill="None" class="contour" stroke="orange" stroke-width="0.1"><path d="M397.0,0.0H0.0v16.4h397.0V8.2"></path></g>
<g vector-effect="non-scaling-stroke" fill="none" class="incut" stroke="#CEC97D" stroke-width="0.1"><path data-pos="0" data-class="open" d="M401.0,8.2A2.0,2.0 0 0,1 397.0,8.2"></path></g>
<g fill="red" class="incut_start" stroke="none"><circle cx="401.0" cy="8.18" r="0.1" data-pos="0" data-class="open"/></g>
</g>
<g id="XYU-273352-3-c6bf7d89-f070-4645-b597-2f4575db48d0" class="part" part-code="74UNB.14.01.003_Obshivka_273352id_1.5mm-8sht" data-width="1896.000" data-height="840.000">
<g vector-effect="non-scaling-stroke" fill="#4682B4" class="outer" stroke="orange" stroke-width="0.1"><path d="M265.0,840.0H0.0v-41.0L131.0,408.0L0.0,12.0V0.0h1896.0v12.0l-131.0,396.0l131.0,391.0v41.0h-265.0v-41.0h-90.0v41.0H355.0v-41.0h-90.0v2.8z"></path></g>
<g vector-effect="non-scaling-stroke" fill="None" class="engrave" stroke="#000" stroke-width="0.1"><path d="M1895.75,12.76H0.25"></path><path d="M1765.26,408.76H130.74"></path><path d="M1896.00,801.75h-265.00"></path><path d="M1541.00,801.75H355.00"></path><path d="M265.00,801.75H0.00"></path></g>
<g vector-effect="non-scaling-stroke" fill="None" class="contour" stroke="orange" stroke-width="0.1"><path d="M265.0,840.0H0.0v-41.0L131.0,408.0L0.0,12.0V0.0h1896.0v12.0l-131.0,396.0l131.0,391.0v41.0h-265.0v-41.0h-90.0v41.0H355.0v-41.0h-90.0v2.8"></path></g>
<g vector-effect="non-scaling-stroke" fill="none" class="incut" stroke="#CEC97D" stroke-width="0.1"><path data-pos="5" data-class="open" d="M269.0,801.8A2.0,2.0 0 0,0 265.0,801.8"></path></g>
<g fill="red" class="incut_start" stroke="none"><circle cx="269.0" cy="801.75" r="0.1" data-pos="5" data-class="open"/><circle cx="1895.75" cy="12.76" r="0.1" data-pos="0" data-class="engraving"/><circle cx="1765.26" cy="408.76" r="0.1" data-pos="1" data-class="engraving"/><circle cx="1896.0" cy="801.75" r="0.1" data-pos="2" data-class="engraving"/><circle cx="1541.0" cy="801.75" r="0.1" data-pos="3" data-class="engraving"/><circle cx="265.0" cy="801.75" r="0.1" data-pos="4" data-class="engraving"/></g>
</g>
<g id="XYU-273380-4-180d3b20-be9c-4fa6-a863-83edd919d018" class="part" part-code="74UNB.14.01.002-01_List_273380id_1.5mm-8sht_Mirrored" data-width="382.000" data-height="439.000">
<g vector-effect="non-scaling-stroke" fill="#4682B4" class="outer" stroke="orange" stroke-width="0.1"><path d="M180.0,351.0L0.0,263.0l7.0,-14.0V0.0h359.0v16.0l16.0,8.0v401.0h-16.0l-6.0,14.0z"></path></g>
<g vector-effect="non-scaling-stroke" fill="None" class="contour" stroke="orange" stroke-width="0.1"><path d="M360.0,439.0l6.0,-14.0h16.0V24.0l-16.0,-8.0V0.0H7.0v249.0l-7.0,14.0l180.0,88.0"></path></g>
<g vector-effect="non-scaling-stroke" fill="none" class="incut" stroke="#CEC97D" stroke-width="0.1"><path data-pos="0" data-class="open" d="M178.2,354.6A2.0,2.0 0 0,1 180.0,351.0"></path></g>
<g fill="red" class="incut_start" stroke="none"><circle cx="178.24" cy="354.59" r="0.1" data-pos="0" data-class="open"/></g>
</g>
<g id="XYU-273381-5-102dde3f-4675-48af-83eb-36b3de0e5669" class="part" part-code="74UNB.14.01.002_List_273381id_1.5mm-8sht" data-width="382.000" data-height="439.000">
<g vector-effect="non-scaling-stroke" fill="#4682B4" class="outer" stroke="orange" stroke-width="0.1"><path d="M180.0,351.0L0.0,263.0l7.0,-14.0V0.0h359.0v16.0l16.0,8.0v401.0h-16.0l-6.0,14.0z"></path></g>
<g vector-effect="non-scaling-stroke" fill="None" class="contour" stroke="orange" stroke-width="0.1"><path d="M360.0,439.0l6.0,-14.0h16.0V24.0l-16.0,-8.0V0.0H7.0v249.0l-7.0,14.0l180.0,88.0"></path></g>
<g vector-effect="non-scaling-stroke" fill="none" class="incut" stroke="#CEC97D" stroke-width="0.1"><path data-pos="0" data-class="open" d="M178.2,354.6A2.0,2.0 0 0,1 180.0,351.0"></path></g>
<g fill="red" class="incut_start" stroke="none"><circle cx="178.24" cy="354.59" r="0.1" data-pos="0" data-class="open"/></g>
</g>
<g id="XYU-273379-6-fb6b49e4-5f91-48e4-9691-6fee708074dd" class="part" part-code="74UNB.14.01.004_Nakladka_273379id_1.5mm-8sht" data-width="815.000" data-height="519.836">
<g vector-effect="non-scaling-stroke" fill="#4682B4" class="outer" stroke="orange" stroke-width="0.1"><path d="M811.7,228.3l3.3,1.7v289.8H0.0V0.0h775.0v210.0z"></path></g>
<g vector-effect="non-scaling-stroke" fill="None" class="engrave" stroke="#000" stroke-width="0.1"><path d="M815.00,475.15H0.00"></path></g>
<g vector-effect="non-scaling-stroke" fill="None" class="contour" stroke="orange" stroke-width="0.1"><path d="M775.0,210.0V0.0H0.0v519.8h815.0V230.0l-3.3,-1.7"></path></g>
<g vector-effect="non-scaling-stroke" fill="none" class="incut" stroke="#CEC97D" stroke-width="0.1"><path data-pos="1" data-class="open" d="M813.5,224.8A2.0,2.0 0 0,1 811.7,228.3"></path></g>
<g fill="red" class="incut_start" stroke="none"><circle cx="813.46" cy="224.76" r="0.1" data-pos="1" data-class="open"/><circle cx="815.0" cy="475.15" r="0.1" data-pos="0" data-class="engraving"/></g>
</g>
</defs>
<g fill="lightgray"  class="sheet"><path d="M0.00,1250.00L2500.00,1250.00L2500.00,0.00L0.00,0.00Z"></path></g>
<g class="parts" transform="rotate(0.000000 0.000000 0.000000)">
<use xlink:href="#XYU-275229-1-8c99a531-16b4-4751-b8f5-e68645aaceb6" class="XYU-275229" id="pos_1_0" transform="rotate(0.000000 5.000000 974.650350) matrix(1 0 0 1 5.000000 950.650350)"  />
<use xlink:href="#XYU-275229-1-8c99a531-16b4-4751-b8f5-e68645aaceb6" class="XYU-275229" id="pos_1_1" transform="rotate(0.000000 5.000000 936.650350) matrix(1 0 0 1 5.000000 912.650350)"  />
<use xlink:href="#XYU-274482-2-f92b438b-ac50-46ac-bf5b-5e615a9fa51f" class="XYU-274482" id="pos_2_2" transform="rotate(0.000000 5.000000 390.999999) matrix(1 0 0 1 5.000000 374.646702)"  />
<use xlink:href="#XYU-274482-2-f92b438b-ac50-46ac-bf5b-5e615a9fa51f" class="XYU-274482" id="pos_2_3" transform="rotate(0.000000 5.000000 360.646702) matrix(1 0 0 1 5.000000 344.293405)"  />
<use xlink:href="#XYU-274482-2-f92b438b-ac50-46ac-bf5b-5e615a9fa51f" class="XYU-274482" id="pos_2_4" transform="rotate(0.000000 5.000000 330.293405) matrix(1 0 0 1 5.000000 313.940108)"  />
<use xlink:href="#XYU-274482-2-f92b438b-ac50-46ac-bf5b-5e615a9fa51f" class="XYU-274482" id="pos_2_5" transform="rotate(0.000000 5.000000 299.940107) matrix(1 0 0 1 5.000000 283.586810)"  />
<use xlink:href="#XYU-274482-2-f92b438b-ac50-46ac-bf5b-5e615a9fa51f" class="XYU-274482" id="pos_2_6" transform="rotate(0.000000 5.000000 269.586810) matrix(1 0 0 1 5.000000 253.233513)"  />
<use xlink:href="#XYU-274482-2-f92b438b-ac50-46ac-bf5b-5e615a9fa51f" class="XYU-274482" id="pos_2_7" transform="rotate(0.000000 5.000000 239.233513) matrix(1 0 0 1 5.000000 222.880216)"  />
<use xlink:href="#XYU-274482-2-f92b438b-ac50-46ac-bf5b-5e615a9fa51f" class="XYU-274482" id="pos_2_8" transform="rotate(0.000000 5.000000 208.880216) matrix(1 0 0 1 5.000000 192.526919)"  />
<use xlink:href="#XYU-274482-2-f92b438b-ac50-46ac-bf5b-5e615a9fa51f" class="XYU-274482" id="pos_2_9" transform="rotate(0.000000 5.000000 178.526919) matrix(1 0 0 1 5.000000 162.173622)"  />
<use xlink:href="#XYU-274482-2-f92b438b-ac50-46ac-bf5b-5e615a9fa51f" class="XYU-274482" id="pos_2_10" transform="rotate(0.000000 5.000000 148.173621) matrix(1 0 0 1 5.000000 131.820324)"  />
<use xlink:href="#XYU-274482-2-f92b438b-ac50-46ac-bf5b-5e615a9fa51f" class="XYU-274482" id="pos_2_11" transform="rotate(0.000000 5.000000 117.820324) matrix(1 0 0 1 5.000000 101.467027)"  />
<use xlink:href="#XYU-274482-2-f92b438b-ac50-46ac-bf5b-5e615a9fa51f" class="XYU-274482" id="pos_2_12" transform="rotate(0.000000 5.000000 87.467027) matrix(1 0 0 1 5.000000 71.113730)"  />
<use xlink:href="#XYU-274482-2-f92b438b-ac50-46ac-bf5b-5e615a9fa51f" class="XYU-274482" id="pos_2_13" transform="rotate(0.000000 5.000000 57.113730) matrix(1 0 0 1 5.000000 40.760433)"  />
<use xlink:href="#XYU-274482-2-f92b438b-ac50-46ac-bf5b-5e615a9fa51f" class="XYU-274482" id="pos_2_14" transform="rotate(0.000000 5.000000 26.760433) matrix(1 0 0 1 5.000000 10.407136)"  />
<use xlink:href="#XYU-274482-2-f92b438b-ac50-46ac-bf5b-5e615a9fa51f" class="XYU-274482" id="pos_2_15" transform="rotate(0.000000 420.000000 26.760433) matrix(1 0 0 1 420.000000 10.407136)"  />
<use xlink:href="#XYU-274482-2-f92b438b-ac50-46ac-bf5b-5e615a9fa51f" class="XYU-274482" id="pos_2_16" transform="rotate(0.000000 420.000000 57.113730) matrix(1 0 0 1 420.000000 40.760433)"  />
<use xlink:href="#XYU-274482-2-f92b438b-ac50-46ac-bf5b-5e615a9fa51f" class="XYU-274482" id="pos_2_17" transform="rotate(0.000000 420.000000 87.467027) matrix(1 0 0 1 420.000000 71.113730)"  />
<use xlink:href="#XYU-274482-2-f92b438b-ac50-46ac-bf5b-5e615a9fa51f" class="XYU-274482" id="pos_2_18" transform="rotate(0.000000 420.000000 117.820324) matrix(1 0 0 1 420.000000 101.467027)"  />
<use xlink:href="#XYU-274482-2-f92b438b-ac50-46ac-bf5b-5e615a9fa51f" class="XYU-274482" id="pos_2_19" transform="rotate(0.000000 420.000000 148.173621) matrix(1 0 0 1 420.000000 131.820324)"  />
<use xlink:href="#XYU-274482-2-f92b438b-ac50-46ac-bf5b-5e615a9fa51f" class="XYU-274482" id="pos_2_20" transform="rotate(0.000000 420.000000 178.526919) matrix(1 0 0 1 420.000000 162.173622)"  />
<use xlink:href="#XYU-274482-2-f92b438b-ac50-46ac-bf5b-5e615a9fa51f" class="XYU-274482" id="pos_2_21" transform="rotate(0.000000 420.000000 208.880216) matrix(1 0 0 1 420.000000 192.526919)"  />
<use xlink:href="#XYU-274482-2-f92b438b-ac50-46ac-bf5b-5e615a9fa51f" class="XYU-274482" id="pos_2_22" transform="rotate(0.000000 420.000000 239.233513) matrix(1 0 0 1 420.000000 222.880216)"  />
<use xlink:href="#XYU-274482-2-f92b438b-ac50-46ac-bf5b-5e615a9fa51f" class="XYU-274482" id="pos_2_23" transform="rotate(0.000000 420.000000 269.586810) matrix(1 0 0 1 420.000000 253.233513)"  />
<use xlink:href="#XYU-274482-2-f92b438b-ac50-46ac-bf5b-5e615a9fa51f" class="XYU-274482" id="pos_2_24" transform="rotate(0.000000 420.000000 299.940107) matrix(1 0 0 1 420.000000 283.586810)"  />
<use xlink:href="#XYU-274482-2-f92b438b-ac50-46ac-bf5b-5e615a9fa51f" class="XYU-274482" id="pos_2_25" transform="rotate(0.000000 420.000000 330.293405) matrix(1 0 0 1 420.000000 313.940108)"  />
<use xlink:href="#XYU-274482-2-f92b438b-ac50-46ac-bf5b-5e615a9fa51f" class="XYU-274482" id="pos_2_26" transform="rotate(0.000000 420.000000 360.646702) matrix(1 0 0 1 420.000000 344.293405)"  />
<use xlink:href="#XYU-274482-2-f92b438b-ac50-46ac-bf5b-5e615a9fa51f" class="XYU-274482" id="pos_2_27" transform="rotate(0.000000 420.000000 390.999999) matrix(1 0 0 1 420.000000 374.646702)"  />
<use xlink:href="#XYU-274482-2-f92b438b-ac50-46ac-bf5b-5e615a9fa51f" class="XYU-274482" id="pos_2_28" transform="rotate(0.000000 835.000000 26.760433) matrix(1 0 0 1 835.000000 10.407136)"  />
<use xlink:href="#XYU-274482-2-f92b438b-ac50-46ac-bf5b-5e615a9fa51f" class="XYU-274482" id="pos_2_29" transform="rotate(0.000000 835.000000 57.113730) matrix(1 0 0 1 835.000000 40.760433)"  />
<use xlink:href="#XYU-274482-2-f92b438b-ac50-46ac-bf5b-5e615a9fa51f" class="XYU-274482" id="pos_2_30" transform="rotate(0.000000 835.000000 87.467027) matrix(1 0 0 1 835.000000 71.113730)"  />
<use xlink:href="#XYU-274482-2-f92b438b-ac50-46ac-bf5b-5e615a9fa51f" class="XYU-274482" id="pos_2_31" transform="rotate(0.000000 835.000000 117.820324) matrix(1 0 0 1 835.000000 101.467027)"  />
<use xlink:href="#XYU-274482-2-f92b438b-ac50-46ac-bf5b-5e615a9fa51f" class="XYU-274482" id="pos_2_32" transform="rotate(0.000000 835.000000 148.173621) matrix(1 0 0 1 835.000000 131.820324)"  />
<use xlink:href="#XYU-274482-2-f92b438b-ac50-46ac-bf5b-5e615a9fa51f" class="XYU-274482" id="pos_2_33" transform="rotate(0.000000 835.000000 178.526919) matrix(1 0 0 1 835.000000 162.173622)"  />
<use xlink:href="#XYU-274482-2-f92b438b-ac50-46ac-bf5b-5e615a9fa51f" class="XYU-274482" id="pos_2_34" transform="rotate(0.000000 835.000000 208.880216) matrix(1 0 0 1 835.000000 192.526919)"  />
<use xlink:href="#XYU-274482-2-f92b438b-ac50-46ac-bf5b-5e615a9fa51f" class="XYU-274482" id="pos_2_35" transform="rotate(0.000000 835.000000 239.233513) matrix(1 0 0 1 835.000000 222.880216)"  />
<use xlink:href="#XYU-274482-2-f92b438b-ac50-46ac-bf5b-5e615a9fa51f" class="XYU-274482" id="pos_2_36" transform="rotate(0.000000 835.000000 269.586810) matrix(1 0 0 1 835.000000 253.233513)"  />
<use xlink:href="#XYU-274482-2-f92b438b-ac50-46ac-bf5b-5e615a9fa51f" class="XYU-274482" id="pos_2_37" transform="rotate(0.000000 835.000000 299.940107) matrix(1 0 0 1 835.000000 283.586810)"  />
<use xlink:href="#XYU-274482-2-f92b438b-ac50-46ac-bf5b-5e615a9fa51f" class="XYU-274482" id="pos_2_38" transform="rotate(0.000000 835.000000 330.293405) matrix(1 0 0 1 835.000000 313.940108)"  />
<use xlink:href="#XYU-274482-2-f92b438b-ac50-46ac-bf5b-5e615a9fa51f" class="XYU-274482" id="pos_2_39" transform="rotate(0.000000 835.000000 360.646702) matrix(1 0 0 1 835.000000 344.293405)"  />
<use xlink:href="#XYU-274482-2-f92b438b-ac50-46ac-bf5b-5e615a9fa51f" class="XYU-274482" id="pos_2_40" transform="rotate(0.000000 835.000000 390.999999) matrix(1 0 0 1 835.000000 374.646702)"  />
<use xlink:href="#XYU-273352-3-c6bf7d89-f070-4645-b597-2f4575db48d0" class="XYU-273352" id="pos_3_41" transform="rotate(0.000000 5.000000 1245.000000) matrix(1 0 0 1 5.000000 405.000000)"  />
<use xlink:href="#XYU-274482-2-f92b438b-ac50-46ac-bf5b-5e615a9fa51f" class="XYU-274482" id="pos_2_42" transform="rotate(0.000000 1250.000000 390.999999) matrix(1 0 0 1 1250.000000 374.646702)"  />
<use xlink:href="#XYU-274482-2-f92b438b-ac50-46ac-bf5b-5e615a9fa51f" class="XYU-274482" id="pos_2_43" transform="rotate(0.000000 1250.000000 360.646702) matrix(1 0 0 1 1250.000000 344.293405)"  />
<use xlink:href="#XYU-274482-2-f92b438b-ac50-46ac-bf5b-5e615a9fa51f" class="XYU-274482" id="pos_2_44" transform="rotate(0.000000 1250.000000 330.293405) matrix(1 0 0 1 1250.000000 313.940108)"  />
<use xlink:href="#XYU-274482-2-f92b438b-ac50-46ac-bf5b-5e615a9fa51f" class="XYU-274482" id="pos_2_45" transform="rotate(0.000000 1250.000000 299.940107) matrix(1 0 0 1 1250.000000 283.586810)"  />
<use xlink:href="#XYU-274482-2-f92b438b-ac50-46ac-bf5b-5e615a9fa51f" class="XYU-274482" id="pos_2_46" transform="rotate(0.000000 1250.000000 269.586810) matrix(1 0 0 1 1250.000000 253.233513)"  />
<use xlink:href="#XYU-274482-2-f92b438b-ac50-46ac-bf5b-5e615a9fa51f" class="XYU-274482" id="pos_2_47" transform="rotate(0.000000 1250.000000 239.233513) matrix(1 0 0 1 1250.000000 222.880216)"  />
<use xlink:href="#XYU-274482-2-f92b438b-ac50-46ac-bf5b-5e615a9fa51f" class="XYU-274482" id="pos_2_48" transform="rotate(0.000000 1250.000000 208.880216) matrix(1 0 0 1 1250.000000 192.526919)"  />
<use xlink:href="#XYU-274482-2-f92b438b-ac50-46ac-bf5b-5e615a9fa51f" class="XYU-274482" id="pos_2_49" transform="rotate(0.000000 1250.000000 178.526919) matrix(1 0 0 1 1250.000000 162.173622)"  />
<use xlink:href="#XYU-274482-2-f92b438b-ac50-46ac-bf5b-5e615a9fa51f" class="XYU-274482" id="pos_2_50" transform="rotate(0.000000 1250.000000 148.173621) matrix(1 0 0 1 1250.000000 131.820324)"  />
<use xlink:href="#XYU-274482-2-f92b438b-ac50-46ac-bf5b-5e615a9fa51f" class="XYU-274482" id="pos_2_51" transform="rotate(0.000000 1250.000000 117.820324) matrix(1 0 0 1 1250.000000 101.467027)"  />
<use xlink:href="#XYU-274482-2-f92b438b-ac50-46ac-bf5b-5e615a9fa51f" class="XYU-274482" id="pos_2_52" transform="rotate(0.000000 1250.000000 87.467027) matrix(1 0 0 1 1250.000000 71.113730)"  />
<use xlink:href="#XYU-274482-2-f92b438b-ac50-46ac-bf5b-5e615a9fa51f" class="XYU-274482" id="pos_2_53" transform="rotate(0.000000 1250.000000 57.113730) matrix(1 0 0 1 1250.000000 40.760433)"  />
<use xlink:href="#XYU-274482-2-f92b438b-ac50-46ac-bf5b-5e615a9fa51f" class="XYU-274482" id="pos_2_54" transform="rotate(0.000000 1250.000000 26.760433) matrix(1 0 0 1 1250.000000 10.407136)"  />
<use xlink:href="#XYU-273380-4-180d3b20-be9c-4fa6-a863-83edd919d018" class="XYU-273380" id="pos_4_55" transform="rotate(-90.000000 2104.400001 397.999999) matrix(1 0 0 1 2104.400001 -41.000001)"  />
<use xlink:href="#XYU-273381-5-102dde3f-4675-48af-83eb-36b3de0e5669" class="XYU-273381" id="pos_5_56" transform="rotate(-270.000000 1959.701938 15.999999) matrix(1 0 0 1 1959.701938 -423.000001)"  />
<use xlink:href="#XYU-273379-6-fb6b49e4-5f91-48e4-9691-6fee708074dd" class="XYU-273379" id="pos_6_57" transform="rotate(-90.000000 2434.836031 1245.000000) matrix(1 0 0 1 2434.836031 725.163970)"  />
</g>
</svg>